<mxfile host="Electron" modified="2024-09-18T03:03:02.245Z" agent="Mozilla/5.0 (X11; Linux x86_64) AppleWebKit/537.36 (KHTML, like Gecko) draw.io/24.2.5 Chrome/120.0.6099.109 Electron/28.1.0 Safari/537.36" etag="fYDrAbcvdGcnZGLZ4CWv" version="24.2.5" type="device">
  <diagram name="Page-1" id="3aipuVLbl27lPswAXA18">
    <mxGraphModel dx="1420" dy="821" grid="1" gridSize="10" guides="1" tooltips="1" connect="1" arrows="1" fold="1" page="1" pageScale="1" pageWidth="850" pageHeight="1100" math="0" shadow="0">
      <root>
        <mxCell id="0" />
        <mxCell id="1" parent="0" />
        <mxCell id="3o9R1CBB3o6wf6JfxRVH-1" value="" style="shape=table;startSize=0;container=1;collapsible=0;childLayout=tableLayout;fontSize=16;rounded=1;shadow=0;strokeColor=#6c8ebf;strokeWidth=1;fontFamily=Ubuntu;fontStyle=0;fillColor=none;" vertex="1" parent="1">
          <mxGeometry x="220" y="230" width="270" height="250" as="geometry" />
        </mxCell>
        <mxCell id="3o9R1CBB3o6wf6JfxRVH-14" style="shape=tableRow;horizontal=0;startSize=0;swimlaneHead=0;swimlaneBody=0;strokeColor=inherit;top=0;left=0;bottom=0;right=0;collapsible=0;dropTarget=0;fillColor=none;points=[[0,0.5],[1,0.5]];portConstraint=eastwest;fontSize=16;rounded=1;shadow=0;strokeWidth=1;fontFamily=Ubuntu;fontStyle=0;" vertex="1" parent="3o9R1CBB3o6wf6JfxRVH-1">
          <mxGeometry width="270" height="63" as="geometry" />
        </mxCell>
        <mxCell id="3o9R1CBB3o6wf6JfxRVH-15" value="1&lt;div&gt;,.&lt;/div&gt;" style="shape=partialRectangle;html=1;whiteSpace=wrap;connectable=0;strokeColor=inherit;overflow=hidden;fillColor=none;top=0;left=0;bottom=0;right=0;pointerEvents=1;fontSize=16;rounded=1;shadow=0;strokeWidth=1;fontFamily=Ubuntu;fontStyle=0;" vertex="1" parent="3o9R1CBB3o6wf6JfxRVH-14">
          <mxGeometry width="90" height="63" as="geometry">
            <mxRectangle width="90" height="63" as="alternateBounds" />
          </mxGeometry>
        </mxCell>
        <mxCell id="3o9R1CBB3o6wf6JfxRVH-16" value="2&lt;div&gt;abc&lt;/div&gt;" style="shape=partialRectangle;html=1;whiteSpace=wrap;connectable=0;strokeColor=inherit;overflow=hidden;fillColor=none;top=0;left=0;bottom=0;right=0;pointerEvents=1;fontSize=16;rounded=1;shadow=0;strokeWidth=1;fontFamily=Ubuntu;fontStyle=0;" vertex="1" parent="3o9R1CBB3o6wf6JfxRVH-14">
          <mxGeometry x="90" width="90" height="63" as="geometry">
            <mxRectangle width="90" height="63" as="alternateBounds" />
          </mxGeometry>
        </mxCell>
        <mxCell id="3o9R1CBB3o6wf6JfxRVH-17" value="3&lt;div&gt;def&lt;/div&gt;" style="shape=partialRectangle;html=1;whiteSpace=wrap;connectable=0;strokeColor=inherit;overflow=hidden;fillColor=none;top=0;left=0;bottom=0;right=0;pointerEvents=1;fontSize=16;rounded=1;shadow=0;strokeWidth=1;fontFamily=Ubuntu;fontStyle=0;" vertex="1" parent="3o9R1CBB3o6wf6JfxRVH-14">
          <mxGeometry x="180" width="90" height="63" as="geometry">
            <mxRectangle width="90" height="63" as="alternateBounds" />
          </mxGeometry>
        </mxCell>
        <mxCell id="3o9R1CBB3o6wf6JfxRVH-2" value="" style="shape=tableRow;horizontal=0;startSize=0;swimlaneHead=0;swimlaneBody=0;strokeColor=inherit;top=0;left=0;bottom=0;right=0;collapsible=0;dropTarget=0;fillColor=none;points=[[0,0.5],[1,0.5]];portConstraint=eastwest;fontSize=16;rounded=1;shadow=0;strokeWidth=1;fontFamily=Ubuntu;fontStyle=0;" vertex="1" parent="3o9R1CBB3o6wf6JfxRVH-1">
          <mxGeometry y="63" width="270" height="62" as="geometry" />
        </mxCell>
        <mxCell id="3o9R1CBB3o6wf6JfxRVH-3" value="4&lt;div&gt;ghi&lt;/div&gt;" style="shape=partialRectangle;html=1;whiteSpace=wrap;connectable=0;strokeColor=inherit;overflow=hidden;fillColor=none;top=0;left=0;bottom=0;right=0;pointerEvents=1;fontSize=16;rounded=1;shadow=0;strokeWidth=1;fontFamily=Ubuntu;fontStyle=0;" vertex="1" parent="3o9R1CBB3o6wf6JfxRVH-2">
          <mxGeometry width="90" height="62" as="geometry">
            <mxRectangle width="90" height="62" as="alternateBounds" />
          </mxGeometry>
        </mxCell>
        <mxCell id="3o9R1CBB3o6wf6JfxRVH-4" value="5&lt;div&gt;jkl&lt;/div&gt;" style="shape=partialRectangle;html=1;whiteSpace=wrap;connectable=0;strokeColor=inherit;overflow=hidden;fillColor=none;top=0;left=0;bottom=0;right=0;pointerEvents=1;fontSize=16;rounded=1;shadow=0;strokeWidth=1;fontFamily=Ubuntu;fontStyle=0;" vertex="1" parent="3o9R1CBB3o6wf6JfxRVH-2">
          <mxGeometry x="90" width="90" height="62" as="geometry">
            <mxRectangle width="90" height="62" as="alternateBounds" />
          </mxGeometry>
        </mxCell>
        <mxCell id="3o9R1CBB3o6wf6JfxRVH-5" value="6&lt;div&gt;mno&lt;/div&gt;" style="shape=partialRectangle;html=1;whiteSpace=wrap;connectable=0;strokeColor=inherit;overflow=hidden;fillColor=none;top=0;left=0;bottom=0;right=0;pointerEvents=1;fontSize=16;rounded=1;shadow=0;strokeWidth=1;fontFamily=Ubuntu;fontStyle=0;" vertex="1" parent="3o9R1CBB3o6wf6JfxRVH-2">
          <mxGeometry x="180" width="90" height="62" as="geometry">
            <mxRectangle width="90" height="62" as="alternateBounds" />
          </mxGeometry>
        </mxCell>
        <mxCell id="3o9R1CBB3o6wf6JfxRVH-6" value="" style="shape=tableRow;horizontal=0;startSize=0;swimlaneHead=0;swimlaneBody=0;strokeColor=inherit;top=0;left=0;bottom=0;right=0;collapsible=0;dropTarget=0;fillColor=none;points=[[0,0.5],[1,0.5]];portConstraint=eastwest;fontSize=16;rounded=1;shadow=0;strokeWidth=1;fontFamily=Ubuntu;fontStyle=0;" vertex="1" parent="3o9R1CBB3o6wf6JfxRVH-1">
          <mxGeometry y="125" width="270" height="63" as="geometry" />
        </mxCell>
        <mxCell id="3o9R1CBB3o6wf6JfxRVH-7" value="7&lt;div&gt;pqrs&lt;/div&gt;" style="shape=partialRectangle;html=1;whiteSpace=wrap;connectable=0;strokeColor=inherit;overflow=hidden;fillColor=none;top=0;left=0;bottom=0;right=0;pointerEvents=1;fontSize=16;rounded=1;shadow=0;strokeWidth=1;fontFamily=Ubuntu;fontStyle=0;" vertex="1" parent="3o9R1CBB3o6wf6JfxRVH-6">
          <mxGeometry width="90" height="63" as="geometry">
            <mxRectangle width="90" height="63" as="alternateBounds" />
          </mxGeometry>
        </mxCell>
        <mxCell id="3o9R1CBB3o6wf6JfxRVH-8" value="8&lt;div&gt;tuv&lt;/div&gt;" style="shape=partialRectangle;html=1;whiteSpace=wrap;connectable=0;strokeColor=inherit;overflow=hidden;fillColor=none;top=0;left=0;bottom=0;right=0;pointerEvents=1;fontSize=16;rounded=1;shadow=0;strokeWidth=1;fontFamily=Ubuntu;fontStyle=0;" vertex="1" parent="3o9R1CBB3o6wf6JfxRVH-6">
          <mxGeometry x="90" width="90" height="63" as="geometry">
            <mxRectangle width="90" height="63" as="alternateBounds" />
          </mxGeometry>
        </mxCell>
        <mxCell id="3o9R1CBB3o6wf6JfxRVH-9" value="9&lt;div&gt;wxyz&lt;/div&gt;" style="shape=partialRectangle;html=1;whiteSpace=wrap;connectable=0;strokeColor=inherit;overflow=hidden;fillColor=none;top=0;left=0;bottom=0;right=0;pointerEvents=1;fontSize=16;rounded=1;shadow=0;strokeWidth=1;fontFamily=Ubuntu;fontStyle=0;" vertex="1" parent="3o9R1CBB3o6wf6JfxRVH-6">
          <mxGeometry x="180" width="90" height="63" as="geometry">
            <mxRectangle width="90" height="63" as="alternateBounds" />
          </mxGeometry>
        </mxCell>
        <mxCell id="3o9R1CBB3o6wf6JfxRVH-10" value="" style="shape=tableRow;horizontal=0;startSize=0;swimlaneHead=0;swimlaneBody=0;strokeColor=inherit;top=0;left=0;bottom=0;right=0;collapsible=0;dropTarget=0;fillColor=none;points=[[0,0.5],[1,0.5]];portConstraint=eastwest;fontSize=16;rounded=1;shadow=0;strokeWidth=1;fontFamily=Ubuntu;fontStyle=0;" vertex="1" parent="3o9R1CBB3o6wf6JfxRVH-1">
          <mxGeometry y="188" width="270" height="62" as="geometry" />
        </mxCell>
        <mxCell id="3o9R1CBB3o6wf6JfxRVH-11" value="#&lt;div&gt;&lt;br&gt;&lt;/div&gt;" style="shape=partialRectangle;html=1;whiteSpace=wrap;connectable=0;strokeColor=inherit;overflow=hidden;fillColor=none;top=0;left=0;bottom=0;right=0;pointerEvents=1;fontSize=16;rounded=1;shadow=0;strokeWidth=1;fontFamily=Ubuntu;fontStyle=0;" vertex="1" parent="3o9R1CBB3o6wf6JfxRVH-10">
          <mxGeometry width="90" height="62" as="geometry">
            <mxRectangle width="90" height="62" as="alternateBounds" />
          </mxGeometry>
        </mxCell>
        <mxCell id="3o9R1CBB3o6wf6JfxRVH-12" value="0&lt;div&gt;空格&lt;/div&gt;" style="shape=partialRectangle;html=1;whiteSpace=wrap;connectable=0;strokeColor=inherit;overflow=hidden;fillColor=none;top=0;left=0;bottom=0;right=0;pointerEvents=1;fontSize=16;rounded=1;shadow=0;strokeWidth=1;fontFamily=Ubuntu;fontStyle=0;" vertex="1" parent="3o9R1CBB3o6wf6JfxRVH-10">
          <mxGeometry x="90" width="90" height="62" as="geometry">
            <mxRectangle width="90" height="62" as="alternateBounds" />
          </mxGeometry>
        </mxCell>
        <mxCell id="3o9R1CBB3o6wf6JfxRVH-13" value="/&lt;div&gt;&lt;br&gt;&lt;/div&gt;" style="shape=partialRectangle;html=1;whiteSpace=wrap;connectable=0;strokeColor=inherit;overflow=hidden;fillColor=none;top=0;left=0;bottom=0;right=0;pointerEvents=1;fontSize=16;rounded=1;shadow=0;strokeWidth=1;fontFamily=Ubuntu;fontStyle=0;" vertex="1" parent="3o9R1CBB3o6wf6JfxRVH-10">
          <mxGeometry x="180" width="90" height="62" as="geometry">
            <mxRectangle width="90" height="62" as="alternateBounds" />
          </mxGeometry>
        </mxCell>
      </root>
    </mxGraphModel>
  </diagram>
</mxfile>
